# xmcd
#
# Track frame offsets: 
#        150
#        9445
#        20837
#        31675
#        42237
#        53272
#        63875
#        74717
#        84045
#        95792
#        107887
#        118732
#        130590
#        141140
#        151247
#        165047
#        176765
#        186580
#        198340
#        211467
#        221432
#        231210
#        242410
#        253292
#
# Disc length: 3544 seconds
#
# Revision: 4
# Processed by: cddbd v1.5.2PL0 Copyright (c) Steve Scherf et al.
# Submitted via: ExactAudioCopy v1.0b3
#
DISCID=470dd618
DTITLE=Jones George - Cup Of Loneliness - The Classic Mercury Years CD
DTITLE=2
DYEAR=1994
DGENRE=Country
TTITLE0=Big Harlan Taylor
TTITLE1=Everything Ain't Right
TTITLE2=Relief Is Just A Swallow Away
TTITLE3=Talk To Me Lonesome Heart
TTITLE4=Accidentally On Purpose
TTITLE5=The Last Town I Painted
TTITLE6=Your Old Standby
TTITLE7=Whatcha Gonna Do
TTITLE8=You Better Treat Your Man Right
TTITLE9=Out Of Control
TTITLE10=Glad To Let Her Go
TTITLE11=You're Still On My Mind
TTITLE12=Tarnished Angel
TTITLE13=Slave Lover
TTITLE14=Family Bible
TTITLE15=Window Up Above
TTITLE16=Nobody's Lonesome For Me
TTITLE17=Heartaches By The Numbers
TTITLE18=I Love You Because
TTITLE19=(I'll Be There) If You Ever Need Me
TTITLE20=If You Got The Money (I Got The Time)
TTITLE21=Life To Go
TTITLE22=Tender Years
TTITLE23=Achin' Breakin' Heart
EXTD=
EXTT0=
EXTT1=
EXTT2=
EXTT3=
EXTT4=
EXTT5=
EXTT6=
EXTT7=
EXTT8=
EXTT9=
EXTT10=
EXTT11=
EXTT12=
EXTT13=
EXTT14=
EXTT15=
EXTT16=
EXTT17=
EXTT18=
EXTT19=
EXTT20=
EXTT21=
EXTT22=
EXTT23=
PLAYORDER=
